<?xml version="1.0" encoding="UTF-8" standalone="no"?>
<!-- Created with Inkscape (http://www.inkscape.org/) -->
<svg id="svg4190" xmlns:rdf="http://www.w3.org/1999/02/22-rdf-syntax-ns#" xmlns="http://www.w3.org/2000/svg" height="193.69" viewBox="0 0 299.94638 193.68877" width="299.95" version="1.1" xmlns:cc="http://creativecommons.org/ns#" xmlns:dc="http://purl.org/dc/elements/1.1/">
 <metadata id="metadata4196">
  <rdf:RDF>
   <cc:Work rdf:about="">
    <dc:format>image/svg+xml</dc:format>
    <dc:type rdf:resource="http://purl.org/dc/dcmitype/StillImage"/>
    <dc:title/>
   </cc:Work>
  </rdf:RDF>
 </metadata>
 <g id="g4254" transform="translate(-.033420 -.021694)">
  <path id="path4260" fill="#fefefe" d="m41.5 193.09c-9.8067-2.5789-17.919-9.097-21.606-17.361-3.4918-7.826-3.3554-18.592 0.31468-24.835 4.7338-8.0524 11.491-10.63 24.041-9.169l7.5664 0.88055-3.2476-3.7941c-7.6624-8.9518-7.2646-19.944 1.0434-28.826l4.4452-4.7522-3.5196-2.0766c-6.1945-3.6548-7.6763-7.2722-7.3348-17.906 0.16341-5.0879 0.24181-9.2504 0.17422-9.25-0.06759 0.000426-2.2622 0.94708-4.8768 2.1037-3.7842 1.6739-6.207 2.0224-11.877 1.7083-8.222-0.45-12.865-2.401-18.156-7.622-6.0955-6.016-8.4509-12.211-8.4345-22.184 0.034478-20.98 12.898-34.099 35.016-35.709 13.982-1.0177 25.658 4.4724 31.851 14.977 3.2116 5.4469 3.5019 5.6771 5.2106 4.1307 1.1211-1.0146 2.9167-1.4751 4.72-1.2104l2.9105 0.42717 0.57725-6.8854c1.379-16.462 12.073-25.767 29.54-25.709 14.727 0.048747 22.457 8.1714 20.832 21.892l-0.56028 4.7307 3.1818 0.04391c1.75 0.02415 4.0818 0.12451 5.1818 0.22301 1.1 0.09851 4.725-0.55715 8.0555-1.457 7.0576-1.9069 12.588-0.95526 17.124 2.9464 2.6894 2.3133 2.7362 2.3171 5.7659 0.46949 4.1655-2.5401 10.575-2.4283 13.972 0.2438 1.4781 1.1627 2.7916 1.9502 2.9187 1.75 0.13-0.201 0.85-2.165 1.59-4.365 4.25-12.562 15.02-18.477 25.59-14.06 7.0241 2.9349 9.6385 12.923 5.5049 21.031-1.0917 2.1413-1.8792 3.9453-1.75 4.009 4.8439 2.3867 5.5951 2.383 7.1802-0.03617 3.0276-4.6207 12.407-2.591 14.593 3.1578 0.79 2.074 1.56 2.398 5.74 2.398 3.1442 0 6.5762 0.87094 9.8388 2.4968 6.6023 3.2901 9.3837 8.0765 9.3786 16.139-0.005 7.284-2.3199 11.424-8.4786 15.161-2.4499 1.4865-4.4686 3.0403-4.486 3.4528-0.0631 1.4979 9.7975 0.70107 15.468-1.25 11.713-4.0298 23.955-2.0021 29.792 4.9348 3.4273 4.0732 4.0366 6.5691 3.5332 14.474-0.50427 7.9195-3.7824 13.31-10.483 17.236-3.9332 2.305-6.1573 2.8255-13.594 3.181-7.8962 0.37753-21.367-0.99657-25.684-2.6199-0.86038-0.32353-0.12638 1.0604 1.6311 3.0753 7.2949 8.3635 6.9311 19.829-0.89872 28.323l-4.0514 4.3953h3.6122c1.9867 0 7.4944-1.125 12.239-2.5 20.689-5.9955 33.38-0.0998 33.365 15.5-0.0103 10.311-6.2689 18.385-16.366 21.112-5.8192 1.5717-18.994 0.57743-26.096-1.9693-7.5702-2.7148-18.603-10.189-23.255-15.754-3.3184-3.9698-3.7185-4.171-5.6312-2.8312-1.14 0.79-4.03 1.44-6.44 1.44-3.6062 0-4.8868-0.54649-7.2775-3.1058-1.59-1.7-2.9-3.74-2.9-4.52 0-1.2027-0.45142-1.1865-2.9503 0.10576-4.5265 2.3407-10.383 1.9575-13.781-0.90185-2.0142-1.6948-3.3202-2.1522-4.3267-1.5153-2.2326 1.4126-8.5618 1.1056-9.8769-0.47896-0.86413-1.0412-2.5876-1.2765-6.4383-0.8791-5.4486 0.56235-9.8831-0.89341-12.565-4.1248-1.1528-1.3891-1.6131-1.288-4.2542 0.93436-4.0351 3.3953-7.2461 4.0152-11.712 2.261-3.1874-1.252-4.0565-1.2714-5.6239-0.12528-2.3624 1.7274-8.2462 1.6864-11.436-0.0797-2.3037-1.2755-2.7008-1.1206-6.0961 2.378-5.7896 5.9658-14.519 7.3302-22.105 3.4551-2.6383-1.3477-2.6721-1.3206-3.3484 2.6829-1.0519 6.226-7.0681 17.309-11.636 21.436-2.2605 2.0422-6.639 4.899-9.73 6.3483-4.8849 2.2905-7.0588 2.6598-16.62 2.8235-6.05 0.1036-12.35-0.16666-14-0.60057z"/>
  <path id="path4258" fill="#e0e038" d="m41.5 193.09c-9.8067-2.5789-17.919-9.097-21.606-17.361-3.4918-7.826-3.3554-18.592 0.31468-24.835 4.7338-8.0524 11.491-10.63 24.041-9.169l7.5664 0.88055-3.2476-3.7941c-7.6624-8.9518-7.2646-19.944 1.0434-28.826l4.4452-4.7522-3.5196-2.0766c-6.1945-3.6548-7.6763-7.2722-7.3348-17.906 0.16341-5.0879 0.24181-9.2504 0.17422-9.25-0.06759 0.000426-2.2622 0.94708-4.8768 2.1037-3.7842 1.6739-6.207 2.0224-11.877 1.7083-8.222-0.45-12.865-2.401-18.156-7.622-6.0955-6.016-8.4509-12.211-8.4345-22.184 0.034478-20.98 12.898-34.099 35.016-35.709 13.982-1.0177 25.658 4.4724 31.851 14.977 3.2116 5.4469 3.5019 5.6771 5.2106 4.1307 1.1211-1.0146 2.9167-1.4751 4.72-1.2104l2.9105 0.42717 0.57725-6.8854c1.379-16.462 12.073-25.767 29.54-25.709 14.727 0.048747 22.457 8.1714 20.832 21.892l-0.56028 4.7307 3.1818 0.04391c1.75 0.02415 4.0818 0.12451 5.1818 0.22301 1.1 0.09851 4.725-0.55715 8.0555-1.457 7.0576-1.9069 12.588-0.95526 17.124 2.9464 2.6894 2.3133 2.7362 2.3171 5.7659 0.46949 4.1655-2.5401 10.575-2.4283 13.972 0.2438 1.4781 1.1627 2.7916 1.9502 2.9187 1.75 0.13-0.201 0.85-2.165 1.59-4.365 4.25-12.562 15.02-18.477 25.59-14.06 7.0241 2.9349 9.6385 12.923 5.5049 21.031-1.0917 2.1413-1.8792 3.9453-1.75 4.009 4.8439 2.3867 5.5951 2.383 7.1802-0.03617 3.0276-4.6207 12.407-2.591 14.593 3.1578 0.79 2.074 1.56 2.398 5.74 2.398 3.1442 0 6.5762 0.87094 9.8388 2.4968 6.6023 3.2901 9.3837 8.0765 9.3786 16.139-0.005 7.284-2.3199 11.424-8.4786 15.161-2.4499 1.4865-4.4686 3.0403-4.486 3.4528-0.0631 1.4979 9.7975 0.70107 15.468-1.25 11.713-4.0298 23.955-2.0021 29.792 4.9348 3.4273 4.0732 4.0366 6.5691 3.5332 14.474-0.50427 7.9195-3.7824 13.31-10.483 17.236-3.9332 2.305-6.1573 2.8255-13.594 3.181-7.8962 0.37753-21.367-0.99657-25.684-2.6199-0.86038-0.32353-0.12638 1.0604 1.6311 3.0753 7.2949 8.3635 6.9311 19.829-0.89872 28.323l-4.0514 4.3953h3.6122c1.9867 0 7.4944-1.125 12.239-2.5 20.689-5.9955 33.38-0.0998 33.365 15.5-0.0103 10.311-6.2689 18.385-16.366 21.112-5.8192 1.5717-18.994 0.57743-26.096-1.9693-7.5702-2.7148-18.603-10.189-23.255-15.754-3.3184-3.9698-3.7185-4.171-5.6312-2.8312-1.14 0.79-4.03 1.44-6.44 1.44-3.6062 0-4.8868-0.54649-7.2775-3.1058-1.59-1.7-2.9-3.74-2.9-4.52 0-1.2027-0.45142-1.1865-2.9503 0.10576-4.5265 2.3407-10.383 1.9575-13.781-0.90185-2.0142-1.6948-3.3202-2.1522-4.3267-1.5153-2.2326 1.4126-8.5618 1.1056-9.8769-0.47896-0.86413-1.0412-2.5876-1.2765-6.4383-0.8791-5.4486 0.56235-9.8831-0.89341-12.565-4.1248-1.1528-1.3891-1.6131-1.288-4.2542 0.93436-4.0351 3.3953-7.2461 4.0152-11.712 2.261-3.1874-1.252-4.0565-1.2714-5.6239-0.12528-2.3624 1.7274-8.2462 1.6864-11.436-0.0797-2.3037-1.2755-2.7008-1.1206-6.0961 2.378-5.7896 5.9658-14.519 7.3302-22.105 3.4551-2.6383-1.3477-2.6721-1.3206-3.3484 2.6829-1.0519 6.226-7.0681 17.309-11.636 21.436-2.2605 2.0422-6.639 4.899-9.73 6.3483-4.8849 2.2905-7.0588 2.6598-16.62 2.8235-6.05 0.1036-12.35-0.16666-14-0.60057zm71.937-84.497c2.1542-0.90008 4.2697-2.9772 5.8561-5.75 8.06-14.092 0.19-28.433-11.3-20.59-4.68 3.196-7 8.111-7 14.85 0 6.9663 3.1508 11.572 8.7821 12.837 0.15516 0.0349 1.7997-0.57071 3.6546-1.3457zm-3.77-11.258c-1.3832-1.3832-0.59054-6.4095 1.3106-8.3107 2.7052-2.7052 5.0227-1.5842 5.0227 2.4293 0 4.287-4.1105 8.1042-6.3333 5.8813zm54.136 5.5598c0.24198-2.0845-0.29461-2.8543-2.6777-3.8414-1.6392-0.67897-3.7576-2.0934-4.7076-3.1431-1.68-1.847-1.6-1.906 2.47-1.906 7.65 0 14.11-5.297 14.11-11.563 0-4.36-2.26-6.437-7.01-6.437-5.2384 0-7.9473 1.1725-11.79 5.1033-6.4298 6.5766-6.7043 15.596-0.65847 21.641 2.7119 2.7119 4.0416 3.3241 6.6711 3.0711 2.6953-0.25926 3.3384-0.78328 3.5867-2.9228zm-5.81-16.367c0-2.8153 4.1048-6.0806 6.4923-5.1644 3.65 1.399 0.12 7.641-4.32 7.641-1.64 0-2.17-0.602-2.17-2.477zm-19.947 15.42c6.6899-7.1616 11.478-23.035 7.4188-24.592-1.752-0.6723-6.2226 3.3554-9.1228 8.219-1.1312 1.8969-1.1629 1.8957-1.8437-0.06982-2.2455-6.4829-2.8763-7.5-4.6514-7.5-5.493 0-4.5684 19.286 1.2012 25.055 2.6282 2.6282 3.6568 2.4648 6.9979-1.1118zm41.422-4.8682c3.1334-9.4086 4.1978-10.518 9.2612-9.6561 8.373 1.4259 8.7638 1.3409 8.7638-1.9055 0-2.3053-0.65767-3.3017-2.8832-4.3684-2.7733-1.3292-5.4327-0.9809-11.295 1.4792-0.70671 0.29659-1.3067-0.6294-1.5-2.315-0.53746-4.687-3.1008-3.3394-5.5924 2.94-4.55 11.501-5.13 21.754-1.22 21.754 1.4079 0 2.4565-1.8559 4.4777-7.925z"/>
  <path id="path4256" d="m41.5 193.09c-9.8067-2.5789-17.919-9.097-21.606-17.361-3.4918-7.826-3.3554-18.592 0.31468-24.835 4.7338-8.0524 11.491-10.63 24.041-9.169l7.5664 0.88055-3.2476-3.7941c-7.6624-8.9518-7.2646-19.944 1.0434-28.826l4.4452-4.7522-3.5196-2.0766c-6.1945-3.6548-7.6763-7.2722-7.3348-17.906 0.16341-5.0879 0.24181-9.2504 0.17422-9.25-0.06759 0.000426-2.2622 0.94708-4.8768 2.1037-3.7842 1.6739-6.207 2.0224-11.877 1.7083-8.222-0.45-12.865-2.401-18.156-7.622-6.0955-6.016-8.4509-12.211-8.4345-22.184 0.034478-20.98 12.898-34.099 35.016-35.709 13.982-1.0177 25.658 4.4724 31.851 14.977 3.2116 5.4469 3.5019 5.6771 5.2106 4.1307 1.1211-1.0146 2.9167-1.4751 4.72-1.2104l2.9105 0.42717 0.57725-6.8854c1.379-16.462 12.073-25.767 29.54-25.709 14.727 0.048747 22.457 8.1714 20.832 21.892l-0.56028 4.7307 3.1818 0.04391c1.75 0.02415 4.0818 0.12451 5.1818 0.22301 1.1 0.09851 4.725-0.55715 8.0555-1.457 7.0576-1.9069 12.588-0.95526 17.124 2.9464 2.6894 2.3133 2.7362 2.3171 5.7659 0.46949 4.1655-2.5401 10.575-2.4283 13.972 0.2438 1.4781 1.1627 2.7916 1.9502 2.9187 1.75 0.13-0.201 0.85-2.165 1.59-4.365 4.25-12.562 15.02-18.477 25.59-14.06 7.0241 2.9349 9.6385 12.923 5.5049 21.031-1.0917 2.1413-1.8792 3.9453-1.75 4.009 4.8439 2.3867 5.5951 2.383 7.1802-0.03617 3.0276-4.6207 12.407-2.591 14.593 3.1578 0.79 2.074 1.56 2.398 5.74 2.398 3.1442 0 6.5762 0.87094 9.8388 2.4968 6.6023 3.2901 9.3837 8.0765 9.3786 16.139-0.005 7.284-2.3199 11.424-8.4786 15.161-2.4499 1.4865-4.4686 3.0403-4.486 3.4528-0.0631 1.4979 9.7975 0.70107 15.468-1.25 11.713-4.0298 23.955-2.0021 29.792 4.9348 3.4273 4.0732 4.0366 6.5691 3.5332 14.474-0.50427 7.9195-3.7824 13.31-10.483 17.236-3.9332 2.305-6.1573 2.8255-13.594 3.181-7.8962 0.37753-21.367-0.99657-25.684-2.6199-0.86038-0.32353-0.12638 1.0604 1.6311 3.0753 7.2949 8.3635 6.9311 19.829-0.89872 28.323l-4.0514 4.3953h3.6122c1.9867 0 7.4944-1.125 12.239-2.5 20.689-5.9955 33.38-0.0998 33.365 15.5-0.0103 10.311-6.2689 18.385-16.366 21.112-5.8192 1.5717-18.994 0.57743-26.096-1.9693-7.5702-2.7148-18.603-10.189-23.255-15.754-3.3184-3.9698-3.7185-4.171-5.6312-2.8312-1.14 0.79-4.03 1.44-6.44 1.44-3.6062 0-4.8868-0.54649-7.2775-3.1058-1.59-1.7-2.9-3.74-2.9-4.52 0-1.2027-0.45142-1.1865-2.9503 0.10576-4.5265 2.3407-10.383 1.9575-13.781-0.90185-2.0142-1.6948-3.3202-2.1522-4.3267-1.5153-2.2326 1.4126-8.5618 1.1056-9.8769-0.47896-0.86413-1.0412-2.5876-1.2765-6.4383-0.8791-5.4486 0.56235-9.8831-0.89341-12.565-4.1248-1.1528-1.3891-1.6131-1.288-4.2542 0.93436-4.0351 3.3953-7.2461 4.0152-11.712 2.261-3.1874-1.252-4.0565-1.2714-5.6239-0.12528-2.3624 1.7274-8.2462 1.6864-11.436-0.0797-2.3037-1.2755-2.7008-1.1206-6.0961 2.378-5.7896 5.9658-14.519 7.3302-22.105 3.4551-2.6383-1.3477-2.6721-1.3206-3.3484 2.6829-1.0519 6.226-7.0681 17.309-11.636 21.436-2.2605 2.0422-6.639 4.899-9.73 6.3483-4.8849 2.2905-7.0588 2.6598-16.62 2.8235-6.05 0.1036-12.35-0.16666-14-0.60057zm26.86-9.3951c7.3364-3.3587 13.044-8.7754 16.335-15.503 3.4099-6.9696 3.5434-16.106 0.38995-26.687-1.147-3.85-2.085-9.12-2.085-11.73 0-4.3828 0.44427-5.2235 6-11.354 4.8049-5.3021 6-7.2836 6-9.9485 0-5.999-4.8233-8.1647-11.033-4.9537-3.6911 1.9087-5.4415 5.2761-7.0155 13.496-1.5469 8.0785-3.3532 11.757-6.4703 13.178-1.8565 0.84589-2.7988 0.79121-4.0342-0.23413-1.33-1.1038-1.4919-2.5328-0.92586-8.1696 0.78-7.76-0.15-9.78-4.509-9.78-5.316 0-11.012 6.72-11.012 13 0 10.81 12.134 16.791 21.36 10.53l3.64-2.47v3.502c0 5.181-2.4476 10.12-6.1898 12.491-3.0574 1.9369-4.15 2.0409-14.31 1.3615-19.55-1.3-21.024-1.21-24.015 1.59-3.89 3.64-5.485 7.28-5.485 12.55 0 6.0276 2.2717 10.672 7.3442 15.013 8.848 7.5735 24.559 9.3752 36.016 4.1301zm211.24-7.1966c9.3621-5.4866 10.092-16.503 1.3921-21.002-4.0256-2.0817-7.4879-1.8828-18.726 1.0756-13.318 3.5058-18.815 2.6548-28.012-4.3368-4.0563-3.0834-4.1107-4.2331-0.20034-4.2331 8.6922 0 16.643-10.118 14.539-18.501-0.34708-1.3829-1.8737-3.9051-3.3925-5.6049-3.4754-3.8896-10.259-5.0072-15.257-2.5136-1.7856 0.89077-3.3461 1.6196-3.4679 1.6196-0.12175 0-0.22136-1.1236-0.22136-2.4969 0-3.0599-1.8937-5.5031-4.2655-5.5031-2.652 0-2.9469 2.004-1.3268 9.0167 1.6997 7.3572 1.5527 8.1685-3.7095 20.485-2.17 5.08-3.95 9.98-3.95 10.87 0 2.0433 3.5034 5.6285 5.5 5.6285 2.7052 0 5.5-3.8111 5.5-7.5 0-4.5934 1.0544-4.4069 3.4598 0.61211 4.269 8.9071 21.991 21.821 34.042 24.806 5.9244 1.4675 13.095 0.50752 18.095-2.4224zm-51.26-37.06c-0.93893-2.4468 1.3368-6.3163 4.1266-7.0165 5.5422-1.391 7.4607 2.4237 3.2218 6.406-2.7015 2.538-6.488 2.8526-7.3484 0.61054zm-115.27 12.515c3.9162-2.7886 7.9156-11.118 7.8994-16.451-0.03-9.02-6.08-16.49-13.37-16.49-8.584 0-15.6 8.43-15.6 18.75 0 7.8909 3.1824 14.011 8.5 16.347 3.0983 1.3608 9.0776 0.33982 12.569-2.1462zm-10.69-16.58c-1.3485-5.3728 2.7612-11.016 6.3746-8.7536 2.5602 1.603 2.6635 5.5986 0.22499 8.6987-2.7538 3.5008-5.7285 3.5256-6.5996 0.0549zm103.4 17.08c1.41-0.98 2.22-2.59 2.22-4.39 0-3.12-1.44-4.05-6.25-4.05-1.6992 0-3.9124-0.74474-4.9182-1.655-2.0858-1.8876-2.5616-6.8156-0.57874-5.9933 9.4468 3.9174 15.175 3.1566 18.156-2.4117 4.8557-9.0689-5.4846-17.593-15.206-12.535-8.811 4.5844-12.946 17.007-8.6641 26.03 2.8455 5.9964 10.323 8.4533 15.241 5.0081zm-5.4511-21.035c-0.43581-1.1357 0.1135-2.3459 1.6177-3.5639 2.7422-2.2205 3.1295-2.2483 5.6148-0.40281 1.5498 1.1508 1.7192 1.8061 0.84028 3.25-1.514 2.4873-7.1996 2.992-8.0728 0.71668zm-66.361 16.129c2.088-2.2225 2.261-3.1262 1.7699-9.2443-0.65-8.03 0.27-10.29 4.19-10.29 3.6686 0 4.1827 1.4541 3.9738 11.24-0.2047 9.589 1.0508 11.629 4.621 7.508 3.2187-3.7153 4.4648-8.7397 4.4714-18.03 0.006-8.7061-1.6734-13.941-5.0539-15.75-2.8568-1.5289-9.5313-0.64846-11.996 1.5825-1.7411 1.5757-2.1681 1.5906-5.0843 0.17828-6.384-3.0919-8.0157 0.45591-4.8038 10.445 1.9546 6.0788 2.1138 7.7327 1.2187 12.659-1.0517 5.7886-0.31863 9.8828 2.0379 11.381 1.7772 1.13 2.1373 1.0002 4.653-1.6777zm41.148-2.1568 2.6137-2.4929 0.61602 3.0801c0.58511 2.9256 3.0353 4.9875 4.3566 3.6662 0.33756-0.33756 0.98308-5.346 1.4345-11.13 0.45141-5.7839 1.4687-11.751 2.2607-13.26 1.5896-3.0286 7.0451-8.4173 12.914-12.755 4.4456-3.2862 7.057-7.76 6.1667-10.565-0.92597-2.9175-4.8298-5.1236-7.7636-4.3873-5.9999 1.5059-13.049 12.196-14.333 21.736-0.78874 5.8599-1.762 6.6308-3.3948 2.6889-1.64-3.93-5.99-6.95-10.03-6.95-9.7172 0-15.44 19.111-8.9287 29.817 3.4627 5.694 8.4882 5.8949 14.079 0.56274zm-9.5423-11.951c-2.3174-2.3174-1.9234-6.9122 0.86798-10.123 2.006-2.3073 2.7611-2.61 4.25-1.7039 2.7563 1.6774 2.9834 8.7254 0.36541 11.343-2.467 2.467-3.4161 2.5507-5.4834 0.48339zm-52.14-24.83c2.1542-0.90008 4.2697-2.9772 5.8561-5.75 8.06-14.092 0.19-28.433-11.3-20.59-4.68 3.196-7 8.111-7 14.85 0 6.9663 3.1508 11.572 8.7821 12.837 0.15516 0.0349 1.7997-0.57071 3.6546-1.3457zm-3.77-11.258c-1.3832-1.3832-0.59054-6.4095 1.3106-8.3107 2.7052-2.7052 5.0227-1.5842 5.0227 2.4293 0 4.287-4.1105 8.1042-6.3333 5.8813zm174.09 9.148c3.39-2 7.24-8.074 7.24-11.416 0-5.71-6.12-11.064-12.65-11.064-1.5686 0-5.9992 0.9-9.8457 2-13.029 3.7258-21.835 1.938-28.642-5.8147l-3.2301-3.6788 4.8723-0.69695c8.0576-1.1526 13.366-6.4374 14.238-14.176 1.1375-10.092-9.0358-16.461-19.386-12.136l-3.584 1.4975 0.51554-2.6969c0.79588-4.1634-0.85999-7.4974-3.535-7.1174-1.8957 0.26924-2.2126 0.86838-2.0205 3.8193 1.001 15.377 1.1036 14.818-4.7315 25.781-5.2688 9.8984-5.4158 10.382-3.9528 13 0.96518 1.7273 2.5194 2.8356 4.2604 3.0379 2.3175 0.26938 2.969-0.2276 4.2185-3.2179 0.82-1.945 1.48-4.676 1.48-6.069 0-4.1829 1.3015-2.8249 5.3166 5.5475 5.9912 12.493 16.94 21.752 29.438 24.896 5.6368 1.4177 16.443 0.61231 20.003-1.4909zm-49.09-38.147c-2.4867-2.4867 2.4747-8.7335 6.4855-8.1657 3.0986 0.43865 3.5217 3.732 0.84822 6.6016-1.988 2.1338-5.9244 2.9734-7.3337 1.5641zm-70.864 34.56c0.24198-2.0845-0.29461-2.8543-2.6777-3.8414-1.6392-0.67897-3.7576-2.0934-4.7076-3.1431-1.68-1.847-1.6-1.906 2.47-1.906 7.65 0 14.11-5.297 14.11-11.563 0-4.36-2.26-6.437-7.01-6.437-5.2384 0-7.9473 1.1725-11.79 5.1033-6.4298 6.5766-6.7043 15.596-0.65847 21.641 2.7119 2.7119 4.0416 3.3241 6.6711 3.0711 2.6953-0.25926 3.3384-0.78328 3.5867-2.9228zm-5.81-16.367c0-2.8153 4.1048-6.0806 6.4923-5.1644 3.65 1.399 0.12 7.641-4.32 7.641-1.64 0-2.17-0.602-2.17-2.477zm-19.947 15.42c6.6899-7.1616 11.478-23.035 7.4188-24.592-1.752-0.6723-6.2226 3.3554-9.1228 8.219-1.1312 1.8969-1.1629 1.8957-1.8437-0.06982-2.2455-6.4829-2.8763-7.5-4.6514-7.5-5.493 0-4.5684 19.286 1.2012 25.055 2.6282 2.6282 3.6568 2.4648 6.9979-1.1118zm41.422-4.8682c3.1334-9.4086 4.1978-10.518 9.2612-9.6561 8.373 1.4259 8.7638 1.3409 8.7638-1.9055 0-2.3053-0.65767-3.3017-2.8832-4.3684-2.7733-1.3292-5.4327-0.9809-11.295 1.4792-0.70671 0.29659-1.3067-0.6294-1.5-2.315-0.53746-4.687-3.1008-3.3394-5.5924 2.94-4.55 11.501-5.13 21.754-1.22 21.754 1.4079 0 2.4565-1.8559 4.4777-7.925zm-114.57-1.521c5.1636-2.6702 9.5007-8.5696 12.494-16.995 0.62709-1.765 0.86035-1.6648 2.5348 1.0887 2.616 4.301 6.859 7.355 10.22 7.355 2.1757 0 3.3645-0.7946 4.8622-3.25 3.0925-5.0699 3.4207-9.3191 1.64-21.231-2.995-20.033-2.633-20.836 12.768-28.34 10.71-5.217 12.87-7.199 14.05-12.882 2.09-10.013-11.42-17.698-22.75-12.948-11.904 4.987-16.404 17.363-13.849 38.082 0.60567 4.9119 0.96059 9.0714 0.78872 9.2433-0.17187 0.17187-1.403-2.4598-2.7359-5.8482-2.8481-7.2405-6.8461-10.965-9.4503-8.8036-2.4632 2.0443-5.1944 7.9836-7.1765 15.606l-1.787 6.871-0.603-10.511c-0.945-16.503-4.847-23.445-15.987-28.444-13.095-5.877-29.166-2.014-36.574 8.792-6.106 8.907-6.8582 18.306-2.191 27.376 5.893 11.45 16.546 13.82 31.471 7 4.469-2.042 8.683-3.713 9.365-3.713 0.94244 0 1.0321 1.3776 0.37414 5.75-0.476 3.162-0.865 9.502-0.865 14.088 0 7.8965 0.14859 8.4658 2.8058 10.75 3.2004 2.7512 6.5489 3.0555 10.595 0.963zm147.88-20.108c1.25-0.878 2.22-2.609 2.22-3.972 0-2.067-0.79-2.646-5.5-4.015-5.56-1.615-7.5-3.529-7.5-7.39 0-2.4214 1.2531-2.6706 2.978-0.5922 1.8219 2.1953 7.5762 2.9537 11.157 1.4706 3.5674-1.4776 6.8559-6.2731 6.8613-10.006 0.008-5.481-7.7212-9.6816-14.414-7.8337-6.15 1.698-12.58 11.05-12.58 18.298 0 10.744 9.7883 18.936 16.777 14.041zm-5.4302-20.981c-0.88897-2.3166 2.6107-5.6086 5.5919-5.2601 2.8598 0.33429 3.8988 3.0826 2.0209 5.3454-1.608 1.9376-6.8591 1.8787-7.6128-0.08528zm-87.3 19.012c1.62-0.839 2.95-2 2.95-2.579 0-0.63303 1.1141-0.80907 2.7904-0.44091l2.7904 0.61287-0.13243-12.783c-0.14296-13.799-1.0419-17.193-5.1344-19.383-5.4174-2.8993-16.732-0.06497-17.872 4.4769-1.047 4.1717 0.11583 4.8293 7.1981 4.0709 5.3976-0.57804 6.7532-0.40271 8.3985 1.0863 3.5487 3.2115 2.5434 4.7799-2.572 4.0128-9.09-1.363-16.47 3.851-16.47 11.629 0 3.2422 0.66011 4.6834 3.4 7.4233 2.7742 2.7742 4.1638 3.4 7.5497 3.4 2.2823 0 5.4773-0.68656 7.1-1.5257zm-8.85-7.674c-3.306-3.3061 0.29735-10.292 4.9675-9.6304 1.8876 0.26735 2.3906 1.0275 2.6372 3.9853 0.23972 2.8755-0.18093 3.9951-1.9725 5.25-2.72 1.907-4.03 1.999-5.63 0.395zm31.371 0.97634c0.35047-1.1042 0.32597-4.9142-0.0545-8.4665-0.57658-5.384-0.4017-6.7792 1.0509-8.3843 2.2306-2.4648 4.6504-2.4472 6.9104 0.04999 1.4462 1.598 1.6514 2.8878 1.0739 6.75-1.2762 8.5352-1.1501 10.466 0.76094 11.651 3.6859 2.2851 7.238-5.1317 8.352-17.44 0.70777-7.8191-1.8913-15.172-6.0296-17.057-3.1082-1.4162-8.7449-0.4252-11.814 2.077-2.2869 1.8646-2.3555 1.8609-4.6163-0.24846-1.804-1.6831-2.6597-1.908-4-1.0509-2.0592 1.3167-2.0325 5.2947 0.0729 10.843 1.1976 3.1558 1.316 5.2662 0.56128 10-1.5716 9.8575 0.40989 15.032 5.2697 13.761 1.0037-0.26246 2.1116-1.3807 2.4621-2.4849zm40.083 0.65916c1.9183-1.2076 2.3262-1.114 3.723 0.85413 1.5434 2.1748 1.5932 2.1792 3.0957 0.26924 0.95847-1.2184 1.527-4.0363 1.527-7.5685 0-3.0951 0.70424-7.9988 1.565-10.897 1.5674-5.2779 3.4222-7.4513 16.478-19.307 3.4401-3.124 4.0394-4.2345 3.7735-6.993-0.40802-4.2334-4.2033-6.355-8.4738-4.7369-6.1757 2.34-9.9996 8.0164-13.152 19.523l-1.8413 6.7216-2.3271-3.7653c-1.327-2.1472-3.7987-4.3802-5.7516-5.1962-3.073-1.284-3.7949-1.2466-7.033 0.36473-5.7974 2.8848-7.6479 6.2903-8.0813 14.872-0.40808 8.0813 0.66368 11.99 4.1742 15.225 3.629 3.3435 7.6883 3.5524 12.324 0.63411zm-10.65-14.933c-0.64273-1.6905-0.55388-3.7117 0.27475-6.25 0.992-3.0388 1.774-3.8142 4.1162-4.0816 4.6347-0.52907 6.0763 4.0909 3.0828 9.8797-1.9913 3.8507-6.0874 4.0983-7.4738 0.45184z"/>
 </g>
</svg>
